<svg id="Layer_1" data-name="Layer 1" xmlns="http://www.w3.org/2000/svg" viewBox="0 0 117.8 95.97"><path d="M50.5,1.9A21.45,21.45,0,0,0,38,21.5c0,5.6,1.8,10,5.9,14.8l3.2,3.6-2.9,1.5c-3.4,1.8-9.4,8.2-11.9,12.8-2.6,4.8-3.2,30.1-.8,34.7,3.3,6.4,5.8,7.1,26.8,7.1s24.3-.7,27.7-6.2c1.7-2.8,2-5,2-15.9,0-8.8-.5-13.9-1.6-17.2-1.8-5.2-8.2-13-12.6-15.3l-2.9-1.5,3.2-3.6C78.3,31.4,80,27.1,80,21,80,6,64-4.4,50.5,1.9Z" transform="translate(-0.1 -0.03)"/><path d="M17.4,12.9C7.8,18.8,5.6,30.7,12.8,39.1c2.1,2.6,2.4,3.3,1.2,3.7-.8.3-3.6,2.6-6.2,5.1C1.7,54-.4,60.8.2,73,.8,86.8,4.1,90.1,17.7,90.8l8.4.5-.8-2.9c-.4-1.6-.8-8.7-.7-15.9,0-15.5,1.7-21,8.9-29.2L38,38.2l-2-3.5c-2.9-4.9-4.4-13.5-3.2-18,.9-3.2.8-3.8-.8-4.7C28.9,10.3,20.8,10.8,17.4,12.9Z" transform="translate(-0.1 -0.03)"/><path d="M85.9,12c-1.4.8-1.5,1.7-.8,5.2,1.2,4.9-.2,12.4-3.2,17.7l-2,3.6,4.5,4.9c7.1,7.6,9,13.5,9,29.1.1,7.2-.3,14.3-.7,15.9l-.8,2.9,8.4-.5c13.6-.7,16.9-4,17.5-17.8.6-12.2-1.5-19-7.6-25.1-2.6-2.5-5.4-4.8-6.2-5.1-1.2-.4-.9-1.1,1.2-3.7A16.47,16.47,0,0,0,109,24a19.53,19.53,0,0,0-9.1-11.5C96.8,10.8,88.4,10.6,85.9,12Z" transform="translate(-0.1 -0.03)"/></svg>